<svg xmlns="http://www.w3.org/2000/svg" width="600" height="720" viewBox="0 0 600 720">
  <rect width="600" height="720" fill="#19191c"/>
  <line x1="0" y1="80"  x2="80"  y2="0"   stroke="#222225" stroke-width="1"/>
  <line x1="0" y1="160" x2="160" y2="0"   stroke="#222225" stroke-width="1"/>
  <line x1="0" y1="240" x2="240" y2="0"   stroke="#222225" stroke-width="1"/>
  <line x1="0" y1="320" x2="320" y2="0"   stroke="#222225" stroke-width="1"/>
  <line x1="0" y1="400" x2="400" y2="0"   stroke="#222225" stroke-width="1"/>
  <line x1="0" y1="480" x2="480" y2="0"   stroke="#222225" stroke-width="1"/>
  <line x1="0" y1="560" x2="560" y2="0"   stroke="#222225" stroke-width="1"/>
  <line x1="0" y1="640" x2="600" y2="40"  stroke="#222225" stroke-width="1"/>
  <line x1="0" y1="720" x2="600" y2="120" stroke="#222225" stroke-width="1"/>
  <line x1="80"  y1="720" x2="600" y2="200" stroke="#222225" stroke-width="1"/>
  <line x1="160" y1="720" x2="600" y2="280" stroke="#222225" stroke-width="1"/>
  <line x1="240" y1="720" x2="600" y2="360" stroke="#222225" stroke-width="1"/>
  <line x1="320" y1="720" x2="600" y2="440" stroke="#222225" stroke-width="1"/>
  <line x1="400" y1="720" x2="600" y2="520" stroke="#222225" stroke-width="1"/>
  <line x1="480" y1="720" x2="600" y2="600" stroke="#222225" stroke-width="1"/>
  <!-- play icon -->
  <circle cx="300" cy="300" r="55" fill="none" stroke="#c8ff3e" stroke-width="2" opacity="0.25"/>
  <polygon points="287,276 287,324 333,300" fill="#c8ff3e" opacity="0.25"/>
  <rect x="100" y="400" width="400" height="140" rx="12" fill="#c8ff3e" opacity="0.9"/>
  <text x="300" y="445" font-family="sans-serif" font-size="13" font-weight="bold" text-anchor="middle" fill="#0f0f10" letter-spacing="3">PLACEHOLDER</text>
  <text x="300" y="482" font-family="sans-serif" font-size="28" font-weight="bold" text-anchor="middle" fill="#0f0f10">Reel #07</text>
  <text x="300" y="515" font-family="sans-serif" font-size="12" text-anchor="middle" fill="#3a5a00">Replace with your video still</text>
</svg>
