<svg xmlns="http://www.w3.org/2000/svg" width="600" height="780" viewBox="0 0 600 780">
  <rect width="600" height="780" fill="#c8ff3e"/>
  <line x1="0" y1="80"  x2="80"  y2="0"   stroke="#b8ef2e" stroke-width="1"/>
  <line x1="0" y1="160" x2="160" y2="0"   stroke="#b8ef2e" stroke-width="1"/>
  <line x1="0" y1="240" x2="240" y2="0"   stroke="#b8ef2e" stroke-width="1"/>
  <line x1="0" y1="320" x2="320" y2="0"   stroke="#b8ef2e" stroke-width="1"/>
  <line x1="0" y1="400" x2="400" y2="0"   stroke="#b8ef2e" stroke-width="1"/>
  <line x1="0" y1="480" x2="480" y2="0"   stroke="#b8ef2e" stroke-width="1"/>
  <line x1="0" y1="560" x2="560" y2="0"   stroke="#b8ef2e" stroke-width="1"/>
  <line x1="0" y1="640" x2="600" y2="40"  stroke="#b8ef2e" stroke-width="1"/>
  <line x1="0" y1="720" x2="600" y2="120" stroke="#b8ef2e" stroke-width="1"/>
  <line x1="0" y1="780" x2="600" y2="180" stroke="#b8ef2e" stroke-width="1"/>
  <line x1="60"  y1="780" x2="600" y2="240" stroke="#b8ef2e" stroke-width="1"/>
  <line x1="140" y1="780" x2="600" y2="320" stroke="#b8ef2e" stroke-width="1"/>
  <line x1="220" y1="780" x2="600" y2="400" stroke="#b8ef2e" stroke-width="1"/>
  <line x1="300" y1="780" x2="600" y2="480" stroke="#b8ef2e" stroke-width="1"/>
  <line x1="380" y1="780" x2="600" y2="560" stroke="#b8ef2e" stroke-width="1"/>
  <line x1="460" y1="780" x2="600" y2="640" stroke="#b8ef2e" stroke-width="1"/>
  <line x1="540" y1="780" x2="600" y2="720" stroke="#b8ef2e" stroke-width="1"/>
  <rect x="100" y="310" width="400" height="160" rx="12" fill="#0f0f10" opacity="0.85"/>
  <text x="300" y="375" font-family="sans-serif" font-size="13" font-weight="bold" text-anchor="middle" fill="#c8ff3e" letter-spacing="3">PLACEHOLDER</text>
  <text x="300" y="412" font-family="sans-serif" font-size="28" font-weight="bold" text-anchor="middle" fill="#ffffff">Design #04</text>
  <text x="300" y="445" font-family="sans-serif" font-size="12" text-anchor="middle" fill="#a8a8a3">Replace with your design work</text>
</svg>
