<svg xmlns="http://www.w3.org/2000/svg" width="600" height="500" viewBox="0 0 600 500">
  <rect width="600" height="500" fill="#19191c"/>
  <line x1="0" y1="80"  x2="80"  y2="0"   stroke="#222225" stroke-width="1"/>
  <line x1="0" y1="160" x2="160" y2="0"   stroke="#222225" stroke-width="1"/>
  <line x1="0" y1="240" x2="240" y2="0"   stroke="#222225" stroke-width="1"/>
  <line x1="0" y1="320" x2="320" y2="0"   stroke="#222225" stroke-width="1"/>
  <line x1="0" y1="400" x2="400" y2="0"   stroke="#222225" stroke-width="1"/>
  <line x1="0" y1="480" x2="480" y2="0"   stroke="#222225" stroke-width="1"/>
  <line x1="0" y1="500" x2="500" y2="0"   stroke="#222225" stroke-width="1"/>
  <line x1="100" y1="500" x2="600" y2="0" stroke="#222225" stroke-width="1"/>
  <line x1="200" y1="500" x2="600" y2="100" stroke="#222225" stroke-width="1"/>
  <line x1="300" y1="500" x2="600" y2="200" stroke="#222225" stroke-width="1"/>
  <line x1="400" y1="500" x2="600" y2="300" stroke="#222225" stroke-width="1"/>
  <line x1="500" y1="500" x2="600" y2="400" stroke="#222225" stroke-width="1"/>
  <rect x="100" y="185" width="400" height="130" rx="12" fill="#c8ff3e" opacity="0.9"/>
  <text x="300" y="230" font-family="sans-serif" font-size="13" font-weight="bold" text-anchor="middle" fill="#0f0f10" letter-spacing="3">PLACEHOLDER</text>
  <text x="300" y="265" font-family="sans-serif" font-size="28" font-weight="bold" text-anchor="middle" fill="#0f0f10">Photo #02</text>
  <text x="300" y="295" font-family="sans-serif" font-size="12" text-anchor="middle" fill="#3a5a00">Replace with your photo</text>
</svg>
